<svg id="svg" xmlns="http://www.w3.org/2000/svg" xmlns:xlink="http://www.w3.org/1999/xlink" width="400" height="400" viewBox="0, 0, 400,400"><g id="svgg"><path id="path0" d="M56.144 2.177 C 48.354 6.224,45.313 13.171,45.313 26.918 L 45.313 34.229 37.520 34.497 C 28.292 34.815,26.190 36.068,26.335 41.166 C 26.469 45.900,28.391 46.875,37.587 46.875 L 45.313 46.875 45.313 60.456 L 45.313 74.037 37.494 74.351 C 28.313 74.720,26.192 75.963,26.331 80.891 C 26.473 85.901,28.003 86.719,37.230 86.719 L 45.313 86.719 45.313 100.781 L 45.313 114.844 37.230 114.844 C 27.921 114.844,26.191 115.788,26.333 120.789 C 26.473 125.741,28.023 126.563,37.230 126.563 L 45.313 126.563 45.313 140.625 L 45.313 154.688 37.230 154.687 C 28.015 154.687,26.250 155.630,26.250 160.547 C 26.250 165.464,28.015 166.406,37.230 166.406 L 45.313 166.406 45.313 180.469 L 45.313 194.531 37.230 194.531 C 28.003 194.531,26.473 195.349,26.331 200.359 C 26.192 205.287,28.313 206.530,37.494 206.899 L 45.313 207.213 45.313 220.313 L 45.313 233.412 37.494 233.726 C 28.313 234.095,26.192 235.338,26.331 240.266 C 26.473 245.276,28.003 246.094,37.230 246.094 L 45.313 246.094 45.313 259.692 L 45.313 273.291 37.520 273.560 C 28.292 273.878,26.190 275.131,26.335 280.228 C 26.469 284.962,28.391 285.937,37.587 285.938 L 45.313 285.938 45.313 299.609 L 45.313 313.281 38.064 313.281 C 28.194 313.281,24.622 315.972,26.675 321.862 C 27.854 325.244,29.384 325.781,37.839 325.781 L 45.313 325.781 45.313 339.453 L 45.313 353.125 38.064 353.125 C 28.194 353.125,24.622 355.816,26.675 361.706 C 27.854 365.088,29.384 365.625,37.839 365.625 L 45.313 365.625 45.312 373.008 C 45.312 386.833,48.340 393.769,56.144 397.823 L 60.335 400.000 96.920 400.000 L 133.505 400.000 134.721 398.264 C 136.279 396.040,136.279 392.241,134.721 390.018 C 133.530 388.317,133.166 388.281,117.143 388.281 L 100.781 388.281 100.781 229.688 C 100.781 72.135,100.771 71.083,99.219 69.531 C 97.215 67.528,92.947 67.494,90.516 69.462 L 88.672 70.956 88.471 229.687 L 88.270 388.418 75.971 388.152 C 59.046 387.785,57.813 386.764,57.813 373.124 L 57.813 365.625 65.879 365.625 C 75.263 365.625,77.344 364.456,77.344 359.186 C 77.344 354.413,74.831 353.125,65.520 353.125 L 57.813 353.125 57.813 339.453 L 57.813 325.781 66.016 325.781 C 75.667 325.781,77.344 324.865,77.344 319.588 C 77.344 314.541,74.982 313.281,65.520 313.281 L 57.813 313.281 57.813 299.609 L 57.813 285.938 66.016 285.938 C 75.445 285.938,77.344 284.970,77.344 280.165 C 77.344 274.970,75.458 273.863,66.086 273.562 L 57.813 273.295 57.813 259.695 L 57.813 246.094 66.016 246.094 C 75.445 246.094,77.344 245.126,77.344 240.321 C 77.344 235.159,75.489 234.071,66.103 233.723 L 57.813 233.417 57.813 220.224 L 57.813 207.031 64.337 207.031 C 74.427 207.031,77.344 205.466,77.344 200.051 C 77.344 195.529,75.296 194.531,66.016 194.531 L 57.813 194.531 57.813 180.469 L 57.813 166.406 66.016 166.406 C 75.493 166.406,77.344 165.449,77.344 160.547 C 77.344 155.645,75.493 154.688,66.016 154.688 L 57.813 154.688 57.813 140.625 L 57.813 126.563 66.016 126.563 C 75.493 126.563,77.344 125.605,77.344 120.703 C 77.344 115.801,75.493 114.844,66.016 114.844 L 57.813 114.844 57.813 100.781 L 57.813 86.719 66.016 86.719 C 75.445 86.719,77.344 85.751,77.344 80.946 C 77.344 75.784,75.489 74.696,66.103 74.348 L 57.813 74.042 57.813 60.458 L 57.813 46.875 66.016 46.875 C 75.445 46.875,77.344 45.907,77.344 41.102 C 77.344 35.940,75.489 34.852,66.103 34.505 L 57.813 34.198 57.813 26.787 C 57.813 13.254,59.074 12.214,75.937 11.849 L 88.201 11.583 88.437 30.381 C 88.704 51.772,88.965 52.656,95.005 52.656 C 100.532 52.656,100.781 51.696,100.781 30.382 L 100.781 11.719 210.742 11.723 C 326.481 11.728,325.196 11.688,328.089 15.367 L 329.688 17.398 329.688 200.000 L 329.687 382.602 328.089 384.633 C 325.230 388.269,325.140 388.272,237.695 388.277 C 155.732 388.281,154.668 388.301,153.125 389.844 C 151.053 391.916,151.053 396.365,153.125 398.438 C 155.162 400.475,325.135 400.944,329.965 398.926 C 334.013 397.234,338.366 392.939,340.351 388.678 L 342.172 384.766 342.180 314.648 L 342.188 244.531 356.250 244.531 C 371.965 244.531,372.856 244.246,373.814 238.911 C 374.069 237.490,374.176 191.777,374.053 137.326 L 373.828 38.324 372.051 36.545 C 370.353 34.846,369.638 34.755,356.230 34.521 L 342.188 34.276 342.180 24.755 C 342.171 13.679,340.727 9.341,335.532 4.779 C 329.682 -0.357,340.267 0.000,193.864 -0.000 L 60.335 -0.000 56.144 2.177 M361.719 73.828 L 361.719 100.781 351.953 100.781 L 342.188 100.781 342.188 73.828 L 342.188 46.875 351.953 46.875 L 361.719 46.875 361.719 73.828 M361.719 139.844 L 361.719 166.406 351.953 166.406 L 342.188 166.406 342.188 139.844 L 342.188 113.281 351.953 113.281 L 361.719 113.281 361.719 139.844 M161.184 139.841 C 157.820 141.212,157.813 141.346,157.813 199.501 L 157.813 255.355 159.871 256.975 C 163.111 259.523,271.264 259.523,274.504 256.975 L 276.563 255.355 276.563 199.249 C 276.563 145.173,276.508 143.075,275.069 141.297 L 273.576 139.453 218.233 139.299 C 187.265 139.213,162.139 139.452,161.184 139.841 M264.063 198.828 L 264.063 246.094 217.188 246.094 L 170.313 246.094 170.313 198.828 L 170.313 151.563 217.188 151.563 L 264.063 151.563 264.063 198.828 M361.719 205.469 L 361.719 232.031 351.953 232.031 L 342.188 232.031 342.188 205.469 L 342.188 178.906 351.953 178.906 L 361.719 178.906 361.719 205.469 " stroke="white" fill="#000000" fill-rule="evenodd"></path></g></svg>