<svg id="svg" xmlns="http://www.w3.org/2000/svg" xmlns:xlink="http://www.w3.org/1999/xlink" width="400" height="400" viewBox="0, 0, 400,400"><g id="svgg"><path id="path0" d="M166.640 1.412 C 146.285 8.660,138.929 35.979,151.700 56.898 C 158.308 67.722,167.449 61.099,162.174 49.309 C 149.468 20.909,171.804 -0.330,193.057 19.943 C 199.201 25.803,200.682 25.738,207.701 19.297 C 227.372 1.245,250.779 21.691,239.075 46.703 C 234.573 56.323,221.813 70.700,207.231 82.581 L 200.010 88.465 194.341 83.885 C 191.223 81.366,186.439 77.282,183.710 74.809 C 176.801 68.547,171.128 68.846,169.836 75.539 C 168.746 81.182,192.167 100.781,200.000 100.781 C 207.022 100.781,227.769 83.645,241.640 66.390 C 260.793 42.562,258.239 12.855,236.147 2.502 C 226.504 -2.016,211.369 -0.279,203.063 6.299 L 200.000 8.725 196.937 6.299 C 189.377 0.311,175.856 -1.870,166.640 1.412 M186.199 113.657 C 158.796 118.629,135.877 137.922,126.192 164.170 C 124.956 167.518,124.610 167.830,121.607 168.295 C 92.660 172.776,93.860 216.294,123.013 219.303 L 127.064 219.721 129.508 224.900 C 150.699 269.816,209.978 283.162,249.135 251.833 C 258.445 244.384,267.381 232.975,271.118 223.768 C 272.753 219.740,272.753 219.740,276.895 219.312 C 306.198 216.288,307.442 172.957,278.360 168.306 C 275.405 167.834,275.035 167.499,273.786 164.170 C 260.286 128.175,223.405 106.906,186.199 113.657 M210.599 125.821 C 234.923 130.128,254.693 147.268,262.554 170.864 C 265.373 179.328,266.551 180.469,272.465 180.469 C 285.147 180.469,292.002 193.147,284.153 202.086 C 280.909 205.781,277.740 207.031,271.615 207.031 C 266.525 207.031,262.500 208.886,262.500 211.231 C 262.500 213.424,255.834 225.791,251.812 231.059 C 226.574 264.116,175.885 264.853,149.220 232.551 C 145.462 227.998,137.500 213.571,137.500 211.314 C 137.500 208.891,133.542 207.031,128.385 207.031 C 122.260 207.031,119.091 205.781,115.847 202.086 C 107.998 193.147,114.853 180.469,127.535 180.469 C 133.449 180.469,134.627 179.328,137.446 170.864 C 147.803 139.777,179.432 120.302,210.599 125.821 M54.476 137.973 C 43.647 141.303,43.578 141.503,31.576 204.297 C 19.288 268.591,19.323 268.167,25.029 283.801 C 29.858 297.032,33.229 300.948,58.132 322.258 C 82.869 343.426,80.469 338.230,80.469 370.614 C 80.469 394.995,80.526 395.955,82.088 397.942 L 83.707 400.000 115.291 400.000 C 146.102 400.000,146.914 399.961,148.478 398.397 C 150.069 396.806,150.080 396.371,149.812 345.076 C 149.461 278.087,151.581 285.715,124.298 253.244 C 101.982 226.684,100.967 225.881,90.892 226.822 L 85.938 227.285 85.913 224.775 C 85.754 208.305,79.671 150.572,77.716 146.979 C 73.211 138.703,63.874 135.084,54.476 137.973 M333.361 137.846 C 321.091 142.223,320.735 143.300,317.095 187.026 C 315.446 206.837,314.089 223.961,314.079 225.078 L 314.063 227.109 308.398 226.761 C 298.740 226.167,297.652 227.042,276.100 252.734 C 248.353 285.813,250.539 278.023,250.188 345.076 C 249.920 396.371,249.931 396.806,251.522 398.397 C 253.086 399.961,253.898 400.000,284.709 400.000 L 316.293 400.000 317.912 397.942 C 319.474 395.955,319.531 394.995,319.531 370.614 C 319.531 338.217,317.069 343.492,342.259 321.918 C 377.696 291.568,382.609 280.539,376.212 245.703 C 373.085 228.672,372.155 226.563,367.781 226.563 C 360.818 226.563,360.318 229.021,363.660 246.813 C 369.495 277.878,366.377 284.588,332.760 313.311 C 313.634 329.653,312.401 330.869,309.981 335.782 L 307.422 340.977 307.184 364.629 L 306.947 388.281 284.684 388.281 L 262.421 388.281 262.683 341.602 C 263.017 282.230,260.424 291.279,285.775 261.011 C 306.359 236.434,306.516 236.309,310.907 240.983 C 314.091 244.373,313.037 247.565,301.678 268.929 C 290.417 290.109,289.728 292.317,293.465 295.256 C 299.047 299.647,300.752 297.895,312.473 275.714 C 325.110 251.801,323.962 257.191,328.609 200.000 L 332.324 154.297 334.834 151.758 C 337.503 149.057,338.579 148.777,341.705 149.965 C 345.136 151.270,345.882 153.738,351.121 181.109 C 353.943 195.855,356.594 208.558,357.011 209.337 C 359.159 213.351,367.108 212.130,368.242 207.611 C 368.919 204.914,358.321 150.935,356.361 147.092 C 352.299 139.131,341.702 134.870,333.361 137.846 M65.168 151.758 L 67.680 154.297 70.615 190.625 C 76.119 258.749,74.610 251.411,88.464 277.463 C 99.255 297.757,101.076 299.550,106.535 295.256 C 110.233 292.347,109.542 290.042,98.997 270.101 C 85.734 245.021,85.393 243.958,89.558 240.682 C 94.281 236.967,93.656 236.452,114.225 261.011 C 139.576 291.279,136.983 282.230,137.317 341.602 L 137.579 388.281 115.316 388.281 L 93.053 388.281 92.816 364.629 L 92.578 340.977 90.024 335.791 C 87.607 330.885,86.361 329.657,66.872 312.991 C 33.534 284.482,30.440 277.721,36.357 246.309 C 46.998 189.815,54.175 154.036,55.173 152.497 C 57.673 148.645,61.788 148.341,65.168 151.758 M169.886 185.511 C 165.440 189.958,168.641 198.011,174.855 198.011 C 180.225 198.011,183.627 193.508,181.995 188.562 C 180.296 183.414,173.656 181.742,169.886 185.511 M220.546 184.768 C 218.323 186.325,216.927 190.623,217.856 193.052 C 220.914 201.051,232.031 199.086,232.031 190.546 C 232.031 184.729,225.380 181.383,220.546 184.768 M180.824 212.855 C 176.583 217.096,179.390 222.436,188.118 226.733 C 198.156 231.674,212.732 229.348,219.092 221.790 C 224.646 215.190,216.880 207.353,210.286 212.901 C 207.296 215.417,203.048 217.188,200.000 217.188 C 196.952 217.188,192.704 215.417,189.714 212.901 C 186.701 210.366,183.331 210.348,180.824 212.855 " stroke="white" fill="#000000" fill-rule="evenodd"></path></g></svg>