<svg id="svg" xmlns="http://www.w3.org/2000/svg" xmlns:xlink="http://www.w3.org/1999/xlink" width="400" height="400" viewBox="0, 0, 400,400"><g id="svgg"><path id="path0" d="M181.250 0.484 C 104.147 9.683,39.300 60.017,12.255 131.657 C -7.424 183.787,-3.188 247.238,23.310 297.266 L 27.861 305.859 13.931 347.648 C -1.065 392.631,-1.482 394.399,2.060 397.940 C 5.601 401.482,7.369 401.065,52.352 386.069 L 94.141 372.139 102.734 376.690 C 236.545 447.566,399.583 350.522,399.583 200.000 C 399.583 102.715,329.017 19.631,231.641 2.263 C 222.598 0.650,189.617 -0.514,181.250 0.484 M222.421 17.601 C 328.715 31.374,403.485 137.319,379.267 239.844 C 350.792 360.384,213.621 420.598,106.136 359.739 C 95.235 353.567,98.891 353.036,57.864 366.751 C 37.911 373.421,21.482 378.774,21.354 378.646 C 21.226 378.518,26.405 362.616,32.863 343.308 C 46.671 302.028,46.298 304.449,40.428 294.126 C 18.280 255.176,10.571 202.620,20.754 159.993 C 42.640 68.375,131.276 5.791,222.421 17.601 M188.801 84.688 C 156.343 98.290,165.014 144.922,200.000 144.922 C 241.050 144.922,241.816 84.167,200.781 82.990 C 194.376 82.807,192.735 83.039,188.801 84.688 M323.935 100.497 C 322.290 102.142,321.875 103.301,321.875 106.250 C 321.875 109.199,322.290 110.358,323.935 112.003 C 325.579 113.647,326.739 114.063,329.688 114.063 C 332.636 114.063,333.796 113.647,335.440 112.003 C 337.085 110.358,337.500 109.199,337.500 106.250 C 337.500 98.967,329.049 95.383,323.935 100.497 M207.528 101.193 C 220.567 108.834,215.115 128.906,200.000 128.906 C 188.477 128.906,181.310 116.467,187.120 106.552 C 191.280 99.453,200.450 97.045,207.528 101.193 M340.442 127.280 C 337.139 130.232,337.140 134.223,340.446 141.406 C 350.356 162.935,354.958 196.105,351.267 219.407 C 348.890 234.413,350.383 239.063,357.579 239.063 C 365.578 239.063,367.830 232.059,368.534 204.999 C 369.245 177.642,364.537 153.067,354.672 132.640 C 350.757 124.533,345.663 122.614,340.442 127.280 M155.185 162.997 L 153.125 165.057 153.125 184.375 L 153.125 203.693 155.185 205.753 C 157.037 207.605,157.823 207.813,162.997 207.813 L 168.750 207.813 168.750 239.063 L 168.750 270.313 162.997 270.313 C 157.823 270.313,157.037 270.520,155.185 272.372 L 153.125 274.432 153.125 293.750 L 153.125 313.068 155.185 315.128 L 157.244 317.188 200.000 317.188 L 242.756 317.188 244.815 315.128 L 246.875 313.068 246.875 293.750 L 246.875 274.432 244.815 272.372 C 242.963 270.520,242.177 270.313,237.003 270.313 L 231.250 270.313 231.250 217.685 L 231.250 165.057 229.190 162.997 L 227.131 160.938 192.188 160.938 L 157.244 160.938 155.185 162.997 M215.625 229.190 L 215.625 281.818 217.685 283.878 C 219.537 285.730,220.323 285.938,225.497 285.938 L 231.250 285.938 231.250 293.750 L 231.250 301.563 200.000 301.563 L 168.750 301.563 168.750 293.750 L 168.750 285.938 174.503 285.938 C 179.677 285.937,180.463 285.730,182.315 283.878 L 184.375 281.818 184.375 239.063 L 184.375 196.307 182.315 194.247 C 180.463 192.395,179.677 192.188,174.503 192.188 L 168.750 192.188 168.750 184.375 L 168.750 176.563 192.188 176.563 L 215.625 176.563 215.625 229.190 " stroke="white" fill="#000000" fill-rule="evenodd"></path></g></svg>