<svg id="svg" xmlns="http://www.w3.org/2000/svg" xmlns:xlink="http://www.w3.org/1999/xlink" width="400" height="400" viewBox="0, 0, 400,400"><g id="svgg"><path id="path0" d="M193.750 3.059 C 191.816 4.301,148.574 30.710,97.656 61.745 C -9.426 127.013,0.000 120.853,0.000 125.563 C 0.000 129.146,0.073 129.246,10.470 139.781 C 20.844 150.293,20.994 150.495,26.657 161.719 L 32.373 173.047 32.820 182.064 C 33.414 194.063,36.125 199.607,43.164 203.217 L 46.094 204.719 46.094 255.823 L 46.094 306.926 44.445 307.449 C 38.154 309.446,33.444 317.361,32.969 326.735 C 32.667 332.684,32.426 333.611,31.069 334.042 C 25.207 335.902,20.204 343.971,19.702 352.376 L 19.349 358.267 15.339 359.212 C 4.171 361.843,0.480 367.867,0.142 384.016 L -0.107 395.896 2.005 397.557 L 4.117 399.219 200.141 399.219 L 396.165 399.219 398.138 397.245 C 401.351 394.033,400.732 373.949,397.247 368.318 C 394.349 363.635,389.961 360.461,384.661 359.212 L 380.651 358.267 380.298 352.376 C 379.797 343.979,374.793 335.902,368.944 334.046 C 367.607 333.621,367.350 332.650,367.013 326.725 C 366.474 317.280,361.811 309.435,355.555 307.449 L 353.906 306.926 353.906 255.823 L 353.906 204.719 356.836 203.217 C 363.803 199.644,366.536 194.036,367.160 182.031 L 367.627 173.047 373.343 161.719 C 379.006 150.495,379.156 150.293,389.530 139.781 C 401.200 127.955,402.529 125.070,398.242 120.858 C 397.275 119.908,352.833 92.502,299.482 59.956 C 193.253 -4.847,200.219 -1.098,193.750 3.059 M289.937 70.946 C 339.085 100.943,379.910 125.829,380.659 126.247 C 381.846 126.912,381.397 127.624,377.143 131.821 L 372.266 136.632 287.305 84.332 C 224.391 45.603,201.737 32.031,200.000 32.031 C 198.263 32.031,175.609 45.603,112.695 84.332 L 27.734 136.632 22.857 131.821 C 18.604 127.625,18.154 126.912,19.341 126.248 C 20.090 125.830,60.929 100.944,110.093 70.947 C 159.257 40.950,199.729 16.406,200.030 16.406 C 200.332 16.406,240.790 40.949,289.937 70.946 M274.321 93.149 L 347.030 137.891 273.515 138.090 C 233.082 138.200,166.917 138.200,126.483 138.090 L 52.966 137.891 126.288 92.770 C 166.615 67.953,200.060 47.819,200.610 48.028 C 201.161 48.236,234.331 68.541,274.321 93.149 M191.660 69.829 C 178.900 73.997,171.112 87.089,173.505 100.348 C 178.821 129.811,221.212 129.845,226.493 100.391 C 230.041 80.601,210.682 63.616,191.660 69.829 M204.944 83.878 C 206.347 84.464,208.432 86.057,209.577 87.418 C 219.879 99.662,203.050 115.876,191.487 104.846 C 181.170 95.005,191.828 78.398,204.944 83.878 M361.719 152.752 C 361.719 152.976,360.309 155.964,358.585 159.392 L 355.451 165.625 200.000 165.625 L 44.549 165.625 41.415 159.392 C 39.691 155.964,38.281 152.976,38.281 152.752 C 38.281 152.527,111.055 152.344,200.000 152.344 C 288.945 152.344,361.719 152.527,361.719 152.752 M99.996 181.836 C 99.975 191.867,98.764 192.312,72.257 192.027 C 47.224 191.758,47.695 191.908,47.042 184.031 L 46.682 179.688 73.341 179.688 L 100.000 179.688 99.996 181.836 M166.240 184.031 C 165.588 191.885,165.980 191.758,141.588 192.030 C 114.578 192.331,114.063 192.180,114.063 183.984 L 114.063 179.688 140.331 179.688 L 166.600 179.688 166.240 184.031 M219.531 183.843 C 219.531 192.503,223.479 199.958,229.763 203.164 L 232.813 204.719 232.813 255.685 L 232.813 306.650 230.617 307.621 C 224.307 310.415,220.210 317.297,219.692 325.977 L 219.330 332.031 200.000 332.031 L 180.670 332.031 180.308 325.977 C 179.803 317.523,173.125 307.031,168.249 307.031 C 167.365 307.031,167.188 298.471,167.188 255.875 L 167.188 204.719 170.237 203.164 C 176.521 199.958,180.469 192.503,180.469 183.843 L 180.469 179.688 200.000 179.688 L 219.531 179.688 219.531 183.843 M285.938 183.984 C 285.938 192.180,285.422 192.331,258.412 192.030 C 234.020 191.758,234.412 191.885,233.760 184.031 L 233.400 179.688 259.669 179.688 L 285.938 179.688 285.938 183.984 M352.958 184.031 C 352.305 191.908,352.776 191.758,327.743 192.027 C 301.236 192.312,300.025 191.867,300.004 181.836 L 300.000 179.688 326.659 179.688 L 353.318 179.688 352.958 184.031 M112.609 204.688 C 112.979 204.688,113.281 227.503,113.281 255.389 L 113.281 306.091 110.041 308.005 L 106.802 309.918 103.401 308.017 L 100.000 306.116 100.000 255.497 L 100.000 204.877 102.318 203.917 C 103.593 203.389,105.021 202.493,105.492 201.926 C 106.186 201.089,106.875 201.252,109.142 202.791 C 110.679 203.834,112.239 204.688,112.609 204.688 M299.328 204.688 C 299.697 204.688,300.000 227.509,300.000 255.402 L 300.000 306.116 296.599 308.017 L 293.198 309.918 289.959 308.005 L 286.719 306.091 286.719 255.484 L 286.719 204.877 289.037 203.917 C 290.311 203.389,291.740 202.493,292.210 201.926 C 292.905 201.089,293.594 201.252,295.861 202.791 C 297.398 203.834,298.958 204.688,299.328 204.688 M85.938 255.859 L 85.938 305.469 73.047 305.469 L 60.156 305.469 60.156 255.859 L 60.156 206.250 73.047 206.250 L 85.938 206.250 85.938 255.859 M153.125 255.859 L 153.125 305.469 140.234 305.469 L 127.344 305.469 127.344 255.859 L 127.344 206.250 140.234 206.250 L 153.125 206.250 153.125 255.859 M272.656 255.859 L 272.656 305.469 259.766 305.469 L 246.875 305.469 246.875 255.859 L 246.875 206.250 259.766 206.250 L 272.656 206.250 272.656 255.859 M339.844 255.859 L 339.844 305.469 326.953 305.469 L 314.063 305.469 314.063 255.859 L 314.063 206.250 326.953 206.250 L 339.844 206.250 339.844 255.859 M97.262 321.289 C 98.864 322.672,99.396 324.004,99.758 327.539 L 100.219 332.031 73.547 332.031 L 46.875 332.031 46.875 328.185 C 46.875 325.187,47.321 323.809,48.898 321.935 L 50.920 319.531 73.073 319.531 C 94.922 319.531,95.253 319.555,97.262 321.289 M163.349 320.533 C 165.407 322.113,166.406 324.705,166.406 328.464 L 166.406 332.031 140.234 332.031 L 114.063 332.031 114.063 327.400 C 114.063 319.460,113.842 319.526,140.144 319.556 C 156.178 319.574,162.444 319.838,163.349 320.533 M283.879 321.150 C 285.689 322.574,285.938 323.328,285.938 327.400 L 285.938 332.031 259.766 332.031 L 233.594 332.031 233.594 328.464 C 233.594 324.705,234.593 322.113,236.651 320.533 C 239.124 318.634,281.383 319.187,283.879 321.150 M351.102 321.935 C 352.679 323.809,353.125 325.187,353.125 328.185 L 353.125 332.031 326.453 332.031 L 299.781 332.031 300.242 327.539 C 301.072 319.438,300.763 319.531,326.927 319.531 L 349.080 319.531 351.102 321.935 M364.123 348.377 C 366.047 350.302,366.406 351.285,366.406 354.627 L 366.406 358.594 301.893 358.594 L 237.380 358.594 235.096 360.877 C 232.026 363.948,232.026 367.302,235.096 370.373 L 237.380 372.656 309.741 372.656 L 382.102 372.656 384.020 374.574 C 385.595 376.149,385.938 377.266,385.938 380.824 L 385.938 385.156 200.000 385.156 L 14.063 385.156 14.063 380.824 C 14.063 377.266,14.405 376.149,15.980 374.574 L 17.898 372.656 90.259 372.656 L 162.620 372.656 164.904 370.373 C 167.974 367.302,167.974 363.948,164.904 360.877 L 162.620 358.594 98.107 358.594 L 33.594 358.594 33.594 354.627 C 33.594 351.285,33.953 350.302,35.877 348.377 L 38.161 346.094 200.000 346.094 L 361.839 346.094 364.123 348.377 " stroke="white" fill="#000000" fill-rule="evenodd"></path></g></svg>