<svg id="svg" xmlns="http://www.w3.org/2000/svg" xmlns:xlink="http://www.w3.org/1999/xlink" width="400" height="400" viewBox="0, 0, 400,400"><g id="svgg"><path id="path0" d="M45.536 1.133 C 37.512 3.641,29.643 10.640,25.922 18.580 L 23.828 23.047 23.828 200.000 L 23.828 376.953 25.934 381.447 C 28.871 387.714,35.056 393.999,41.320 397.083 L 46.452 399.609 171.077 399.609 L 295.703 399.609 300.197 397.503 C 306.485 394.557,312.779 388.357,315.846 382.089 L 318.359 376.953 318.570 303.846 C 318.772 233.768,318.722 230.685,317.347 229.441 C 314.741 227.083,311.457 226.972,308.917 229.157 L 306.641 231.114 306.250 302.471 L 305.859 373.828 304.148 377.027 C 302.153 380.755,297.776 384.816,293.807 386.621 C 291.269 387.775,280.122 387.891,171.094 387.891 L 51.172 387.891 47.470 386.067 C 42.941 383.837,38.091 378.492,36.856 374.370 C 35.530 369.944,35.530 30.056,36.856 25.630 C 38.091 21.508,42.941 16.163,47.470 13.933 L 51.172 12.109 140.234 11.878 C 189.219 11.751,230.439 11.854,231.836 12.109 L 234.375 12.571 234.375 34.719 C 234.375 63.562,235.947 68.953,246.909 77.695 C 254.294 83.585,256.119 83.919,282.575 84.214 L 306.165 84.478 306.403 101.294 C 306.638 117.890,306.665 118.129,308.485 119.602 C 310.945 121.592,315.185 121.534,317.236 119.483 C 320.022 116.697,319.237 80.157,316.272 74.609 C 312.640 67.816,246.807 3.034,241.797 1.325 C 236.559 -0.462,51.221 -0.643,45.536 1.133 M279.992 71.695 C 250.547 72.063,246.896 68.421,246.883 38.676 L 246.875 21.494 271.880 46.489 L 296.886 71.484 279.992 71.695 M61.293 38.636 C 60.084 39.845,59.375 41.447,59.375 42.969 C 59.375 44.491,60.084 46.092,61.293 47.301 L 63.210 49.219 94.390 49.219 C 130.037 49.219,129.688 49.281,129.688 42.969 C 129.688 36.657,130.037 36.719,94.390 36.719 L 63.210 36.719 61.293 38.636 M61.293 73.793 C 60.084 75.001,59.375 76.603,59.375 78.125 C 59.375 79.647,60.084 81.249,61.293 82.457 L 63.210 84.375 94.750 84.375 L 126.290 84.375 127.989 82.567 C 130.318 80.087,130.222 76.245,127.770 73.793 L 125.852 71.875 94.531 71.875 L 63.210 71.875 61.293 73.793 M350.781 93.581 C 349.103 94.496,346.139 97.759,343.109 102.028 C 339.090 107.691,337.677 109.107,335.510 109.644 C 330.596 110.861,326.901 115.724,268.919 197.291 C 195.079 301.168,200.071 293.440,190.519 318.676 C 183.970 335.975,183.825 339.485,189.451 344.425 C 196.395 350.521,201.201 349.582,213.442 339.737 C 235.247 322.200,233.809 324.006,299.211 232.031 C 329.002 190.137,353.643 155.554,353.969 155.180 C 354.663 154.385,361.731 159.238,361.694 160.484 C 361.680 160.948,355.704 169.722,348.413 179.982 C 341.122 190.241,335.156 199.278,335.156 200.062 C 335.156 204.378,339.189 207.617,343.284 206.590 C 345.363 206.068,371.744 170.465,373.531 165.769 C 375.981 159.329,373.479 152.664,366.727 147.645 L 361.969 144.109 363.947 141.128 C 365.347 139.018,366.026 136.760,366.269 133.401 C 366.581 129.086,367.041 128.056,371.350 122.032 C 379.594 110.507,378.659 105.235,366.912 97.016 C 359.695 91.966,355.417 91.055,350.781 93.581 M362.110 109.074 L 364.063 110.336 361.182 114.348 C 359.597 116.554,358.209 118.487,358.097 118.644 C 357.795 119.068,352.665 115.781,351.570 114.462 C 350.797 113.531,351.161 112.583,353.525 109.362 C 356.745 104.976,355.813 105.007,362.110 109.074 M346.534 126.821 C 350.374 129.541,353.477 132.292,353.430 132.935 C 353.383 133.577,332.816 162.950,307.727 198.207 L 262.109 262.312 255.859 257.982 C 252.422 255.601,248.869 253.083,247.963 252.388 C 246.136 250.983,238.611 261.941,316.531 152.539 C 328.543 135.674,338.637 121.875,338.962 121.875 C 339.286 121.875,342.694 124.101,346.534 126.821 M246.948 267.278 L 254.735 272.837 252.908 275.286 C 251.904 276.633,246.710 283.844,241.366 291.312 C 228.568 309.197,199.848 338.216,198.613 334.510 C 198.120 333.033,207.022 310.715,211.462 302.293 C 215.053 295.483,237.865 261.778,238.917 261.730 C 239.051 261.724,242.666 264.220,246.948 267.278 M102.525 310.180 C 93.683 311.985,80.431 322.847,66.811 339.453 C 54.550 354.402,53.518 356.714,57.386 360.582 C 61.691 364.887,64.352 363.389,73.434 351.541 C 83.664 338.197,98.647 324.389,104.817 322.619 C 108.249 321.635,107.548 324.398,99.716 342.726 C 90.739 363.733,96.957 370.923,113.672 358.867 C 132.312 345.422,138.301 344.167,149.501 351.359 C 168.593 363.620,189.844 365.729,189.844 355.363 C 189.844 351.062,187.273 349.646,178.125 348.910 C 170.591 348.305,165.894 346.608,158.143 341.693 C 142.769 331.945,134.257 331.645,119.046 340.313 C 115.799 342.163,113.328 343.254,113.556 342.737 C 123.861 319.351,119.574 306.698,102.525 310.180 " stroke="white" fill="#000000" fill-rule="evenodd"></path></g></svg>