<svg id="svg" xmlns="http://www.w3.org/2000/svg" xmlns:xlink="http://www.w3.org/1999/xlink" width="400" height="400" viewBox="0, 0, 400,400"><g id="svgg"><path id="path0" d="M98.528 1.857 C 97.376 3.083,96.560 5.295,96.126 8.367 C 94.305 21.248,86.366 29.361,73.453 31.537 C 60.311 33.751,60.360 43.907,73.523 45.940 C 85.762 47.830,96.094 58.296,96.094 68.804 C 96.094 78.406,107.773 81.396,109.615 72.266 C 111.405 63.389,112.144 61.051,114.233 57.656 C 118.324 51.008,125.372 46.728,133.894 45.719 C 145.423 44.353,145.454 33.086,133.933 31.682 C 121.966 30.223,112.851 22.171,110.844 11.286 C 110.373 8.731,109.841 5.841,109.661 4.863 C 108.777 0.045,101.959 -1.796,98.528 1.857 M215.887 1.118 C 216.173 1.863,216.406 4.849,216.406 7.756 L 216.406 13.040 228.711 13.520 C 280.349 15.534,323.849 43.094,346.390 88.077 C 375.842 146.853,358.898 217.475,305.931 256.705 C 287.898 270.062,281.014 277.270,274.350 289.777 L 270.984 296.094 225.480 296.094 L 179.975 296.094 177.683 291.272 C 172.043 279.408,164.457 270.898,149.537 259.699 C 111.765 231.347,93.278 197.838,90.904 153.420 L 90.387 143.750 85.623 143.739 C 83.003 143.733,80.068 143.517,79.102 143.258 C 75.611 142.322,77.037 165.729,81.641 184.944 C 89.804 219.013,109.258 247.141,140.895 270.615 C 150.411 277.676,158.420 285.677,162.326 292.025 L 164.829 296.094 156.243 296.094 L 147.656 296.094 147.656 303.125 L 147.656 310.156 159.004 310.156 C 171.920 310.156,170.998 309.628,172.500 317.888 L 173.224 321.875 167.081 321.875 L 160.938 321.875 160.938 328.906 L 160.938 335.938 167.188 335.938 L 173.438 335.938 173.438 345.338 C 173.437 359.127,174.966 361.719,183.102 361.719 L 186.414 361.719 187.381 367.475 C 194.660 410.794,257.502 410.543,264.332 367.168 L 265.190 361.719 268.481 361.719 C 276.594 361.719,278.125 359.118,278.125 345.338 L 278.125 335.938 284.375 335.938 L 290.625 335.938 290.625 328.906 L 290.625 321.875 284.400 321.875 C 279.784 321.875,278.250 321.622,278.467 320.898 C 278.628 320.361,279.192 317.725,279.721 315.039 L 280.682 310.156 292.294 310.156 L 303.906 310.156 303.906 303.125 L 303.906 296.094 295.249 296.094 L 286.591 296.094 288.350 293.164 C 293.151 285.165,298.613 279.648,310.729 270.561 C 343.751 245.794,363.674 216.001,371.071 180.323 C 388.133 98.031,336.712 19.232,255.086 2.584 C 242.282 -0.027,215.057 -1.046,215.887 1.118 M107.913 33.789 L 112.891 38.672 108.083 43.466 L 103.275 48.261 98.310 43.416 L 93.345 38.572 96.167 36.278 C 97.718 35.016,99.831 32.851,100.861 31.467 C 101.891 30.082,102.780 28.940,102.835 28.928 C 102.891 28.916,105.176 31.104,107.913 33.789 M185.160 33.296 C 180.117 35.116,175.467 38.548,172.560 42.596 C 170.154 45.945,169.902 46.085,167.244 45.530 C 148.643 41.650,130.917 59.140,135.743 76.611 L 136.512 79.394 132.352 81.572 C 118.375 88.890,112.156 107.131,118.325 122.715 C 118.675 123.599,117.717 124.628,114.932 126.359 C 98.834 136.366,99.667 163.871,116.288 171.155 C 118.261 172.020,118.721 172.611,118.366 173.828 C 112.903 192.589,118.035 207.807,132.352 215.303 L 136.512 217.481 135.743 220.264 C 130.887 237.843,148.025 254.712,167.188 251.214 C 169.780 250.741,170.086 250.930,173.092 254.856 C 185.119 270.567,210.922 266.702,217.863 248.149 L 219.549 243.643 219.345 147.407 L 219.141 51.172 217.099 46.875 C 211.559 35.212,197.000 29.022,185.160 33.296 M248.047 33.984 C 241.854 36.514,236.028 42.483,233.720 48.662 L 232.031 53.184 232.031 148.438 C 232.031 242.610,232.049 243.740,233.636 247.980 C 240.629 266.670,266.401 270.623,278.471 254.856 C 281.477 250.929,281.782 250.741,284.375 251.215 C 303.843 254.779,320.855 237.769,315.722 219.871 C 315.062 217.567,315.179 217.414,319.204 215.306 C 333.411 207.868,339.441 190.171,333.226 174.156 C 332.883 173.272,333.960 172.116,337.018 170.085 C 352.694 159.677,352.254 135.464,336.218 126.066 C 333.674 124.575,332.856 123.673,333.214 122.751 C 339.532 106.467,332.574 87.210,318.060 80.806 C 315.084 79.493,315.044 79.419,315.799 76.684 C 320.696 58.949,302.655 41.340,283.957 45.603 C 281.799 46.095,281.368 45.834,279.157 42.698 C 272.427 33.149,259.174 29.437,248.047 33.984 M199.374 47.374 C 200.533 47.958,202.467 49.727,203.671 51.306 L 205.859 54.175 205.859 148.438 L 205.859 242.700 203.671 245.569 C 198.073 252.908,188.135 252.559,183.082 244.847 C 181.884 243.018,181.943 242.681,184.271 238.063 C 185.619 235.390,186.945 231.533,187.217 229.492 L 187.712 225.781 180.575 225.781 C 173.602 225.781,173.438 225.824,173.438 227.619 C 173.438 232.657,167.268 237.891,161.328 237.891 C 146.873 237.891,144.807 216.280,159.007 213.616 L 161.719 213.107 161.719 206.444 L 161.719 199.781 157.383 200.229 C 154.619 200.514,151.480 201.560,148.729 203.113 C 133.790 211.544,122.691 184.734,136.208 172.867 C 147.128 163.278,167.187 171.327,167.188 185.296 L 167.188 187.500 174.254 187.500 L 181.321 187.500 180.848 184.570 C 179.206 174.406,175.961 167.886,169.902 162.580 C 160.373 154.236,145.626 152.374,134.117 158.061 C 127.209 161.476,124.676 161.275,120.373 156.971 C 111.049 147.647,121.254 131.387,132.349 137.889 C 152.625 149.772,177.275 136.951,180.788 112.695 L 181.268 109.375 174.228 109.375 L 167.188 109.375 167.170 111.523 C 167.103 120.015,157.919 128.281,148.553 128.281 C 128.595 128.281,122.434 100.781,140.560 92.607 L 143.746 91.171 148.821 93.746 C 151.724 95.220,155.569 96.483,157.807 96.698 L 161.719 97.074 161.719 90.421 L 161.719 83.768 159.007 83.259 C 144.877 80.608,146.852 58.611,161.222 58.597 C 166.941 58.591,173.438 64.359,173.438 69.442 C 173.438 71.003,173.830 71.094,180.575 71.094 L 187.712 71.094 187.217 67.383 C 186.945 65.342,185.617 61.481,184.266 58.803 L 181.811 53.933 183.626 51.284 C 187.441 45.717,193.228 44.280,199.374 47.374 M264.182 47.358 C 265.323 47.931,267.056 49.695,268.034 51.278 L 269.813 54.156 267.999 57.308 C 266.198 60.437,264.090 67.105,264.072 69.727 C 264.064 70.928,264.915 71.094,271.094 71.094 C 277.955 71.094,278.125 71.049,278.125 69.256 C 278.125 61.810,289.048 56.290,296.024 60.211 C 305.870 65.745,304.124 80.099,293.250 83.007 L 289.844 83.918 289.844 90.506 L 289.844 97.094 294.133 96.651 C 296.853 96.370,300.117 95.276,303.055 93.661 L 307.689 91.113 310.939 92.579 C 324.105 98.516,325.634 116.801,313.663 125.161 C 302.753 132.780,286.821 125.921,284.706 112.695 L 284.175 109.375 277.340 109.375 L 270.504 109.375 270.904 113.086 C 273.397 136.237,297.934 149.009,318.915 138.077 C 331.701 131.415,341.747 150.915,329.437 158.503 C 325.345 161.026,323.003 161.291,320.509 159.515 C 301.683 146.110,273.745 159.988,270.858 184.180 L 270.461 187.500 277.315 187.500 L 284.169 187.500 284.588 184.375 C 286.053 173.453,297.638 166.048,308.399 169.155 C 324.801 173.892,326.677 196.476,311.288 203.926 L 307.736 205.645 303.062 203.154 C 300.199 201.629,296.732 200.492,294.116 200.222 L 289.844 199.781 289.844 206.369 L 289.844 212.957 293.236 213.864 C 304.443 216.862,305.880 231.738,295.454 236.826 C 288.347 240.294,278.125 234.863,278.125 227.619 C 278.125 225.826,277.955 225.781,271.094 225.781 C 264.817 225.781,264.063 225.934,264.063 227.202 C 264.063 229.535,266.463 236.899,268.218 239.947 L 269.854 242.791 268.020 245.468 C 262.821 253.055,252.029 252.566,247.308 244.529 C 245.438 241.346,244.312 62.086,246.119 55.373 C 248.272 47.381,256.744 43.622,264.182 47.358 M61.328 64.994 C 59.021 66.298,58.328 67.791,57.312 73.645 C 55.314 85.158,47.184 94.077,37.262 95.639 C 35.674 95.889,33.143 96.286,31.638 96.520 C 27.918 97.100,25.781 99.564,25.781 103.272 C 25.781 108.089,27.731 109.464,36.096 110.547 C 46.969 111.954,55.249 120.832,57.437 133.428 C 59.652 146.182,69.619 145.825,71.751 132.914 C 73.204 124.115,76.851 118.286,83.437 114.233 C 86.832 112.144,89.170 111.405,98.047 109.615 C 107.302 107.748,104.197 96.094,94.444 96.094 C 84.239 96.094,73.640 85.728,71.788 73.936 C 70.714 67.100,70.459 66.522,67.952 65.226 C 65.293 63.850,63.463 63.786,61.328 64.994 M69.351 108.031 L 64.582 112.891 59.629 107.930 L 54.676 102.969 56.651 101.414 C 59.163 99.439,64.047 94.302,64.056 93.627 C 64.059 93.345,66.325 95.376,69.091 98.142 L 74.120 103.171 69.351 108.031 M266.144 311.914 C 265.907 312.881,265.472 315.518,265.177 317.773 L 264.642 321.875 225.787 321.875 L 186.931 321.875 186.465 318.555 C 186.209 316.729,185.765 314.092,185.480 312.695 L 184.961 310.156 225.768 310.156 L 266.576 310.156 266.144 311.914 M264.063 341.797 L 264.063 347.656 225.781 347.656 L 187.500 347.656 187.500 341.797 L 187.500 335.938 225.781 335.938 L 264.063 335.938 264.063 341.797 M250.596 365.164 C 247.482 392.795,204.081 392.795,200.966 365.164 L 200.578 361.719 225.781 361.719 L 250.984 361.719 250.596 365.164 " stroke="white" fill="#000000" fill-rule="evenodd"></path></g></svg>