<svg id="svg" xmlns="http://www.w3.org/2000/svg" xmlns:xlink="http://www.w3.org/1999/xlink" width="400" height="400" viewBox="0, 0, 400,400"><g id="svgg"><path id="path0" d="M1.293 1.429 C -1.880 4.934,-0.930 7.009,16.036 33.626 L 32.072 58.784 30.167 61.228 C 29.120 62.572,22.964 70.000,16.488 77.734 C 10.012 85.469,4.312 92.991,3.821 94.451 C -3.321 115.676,78.689 187.376,107.386 184.996 C 112.785 184.549,111.966 185.304,127.970 166.016 C 143.937 146.771,141.241 148.610,149.092 151.608 L 155.469 154.043 155.469 171.542 L 155.469 189.041 150.781 200.781 C 142.570 221.347,145.280 228.119,161.719 228.119 C 178.158 228.119,180.867 221.347,172.656 200.781 L 167.969 189.041 167.969 174.208 C 167.969 166.050,168.232 159.377,168.555 159.380 C 168.877 159.382,175.469 161.841,183.203 164.844 C 198.733 170.873,200.725 171.221,203.551 168.395 C 206.114 165.832,205.968 163.625,202.899 158.548 C 196.418 147.825,134.000 50.246,132.891 49.101 C 130.915 47.064,8.691 -0.013,5.395 -0.006 C 3.672 -0.002,2.086 0.552,1.293 1.429 M134.823 1.227 C 130.734 5.315,133.322 11.719,139.062 11.719 C 144.998 11.719,147.539 3.858,142.656 0.598 C 141.112 -0.433,136.079 -0.029,134.823 1.227 M391.406 8.063 C 390.332 8.646,378.930 16.728,366.068 26.023 C 351.586 36.489,342.366 42.673,341.850 42.264 C 331.585 34.151,306.452 16.403,304.675 16.013 C 293.655 13.592,276.087 28.586,251.579 61.328 C 229.420 90.932,220.277 108.343,220.148 121.181 C 220.071 128.827,220.772 129.614,240.775 144.334 C 250.557 151.533,258.565 157.773,258.572 158.203 C 258.580 158.633,254.544 171.446,249.605 186.678 C 239.066 219.178,239.204 218.352,243.929 220.796 C 247.602 222.695,248.495 222.177,277.180 201.522 C 302.967 182.954,304.332 182.083,305.011 183.772 C 312.656 202.774,330.289 214.755,350.726 214.833 C 352.200 214.839,359.396 216.813,366.718 219.221 C 387.726 226.128,393.449 223.669,393.275 207.812 C 393.085 190.544,385.961 187.718,365.957 196.977 C 354.012 202.505,353.884 202.543,349.097 202.002 C 333.724 200.262,323.016 193.370,318.071 182.031 C 314.577 174.020,313.392 175.482,337.494 158.072 L 358.943 142.578 379.471 79.323 C 390.762 44.533,400.000 14.953,400.000 13.589 C 400.000 8.903,395.358 5.918,391.406 8.063 M73.047 38.670 C 102.255 49.964,123.605 58.638,124.390 59.528 C 125.129 60.365,132.423 71.557,140.601 84.398 L 155.469 107.745 155.469 124.095 L 155.469 140.445 151.304 138.911 C 147.306 137.438,147.098 137.219,146.130 133.440 C 142.353 118.704,105.799 82.624,75.781 64.004 C 62.844 55.979,45.986 49.307,43.121 51.078 C 42.791 51.282,38.667 45.428,33.956 38.069 C 23.237 21.326,21.471 18.414,22.347 18.926 C 22.732 19.151,45.547 28.036,73.047 38.670 M235.065 26.479 C 230.866 29.879,233.630 37.500,239.063 37.500 C 242.628 37.500,244.886 35.076,244.886 31.250 C 244.886 27.424,242.628 25.000,239.063 25.000 C 237.869 25.000,236.070 25.666,235.065 26.479 M299.108 35.119 C 290.709 59.991,255.203 107.070,235.379 119.622 L 232.944 121.164 234.036 117.418 C 240.774 94.295,274.959 47.858,296.804 32.153 C 301.095 29.069,301.134 29.120,299.108 35.119 M365.036 82.823 L 348.150 134.766 320.754 154.457 C 305.687 165.287,285.598 179.740,276.111 186.576 L 258.863 199.004 264.844 180.659 L 270.826 162.313 273.707 161.322 C 297.478 153.150,348.543 84.907,350.686 58.449 L 351.172 52.445 366.394 41.510 C 374.767 35.496,381.686 30.644,381.770 30.728 C 381.854 30.812,374.324 54.255,365.036 82.823 M326.172 46.507 C 333.047 51.572,338.765 55.783,338.878 55.864 C 340.355 56.921,330.689 78.216,323.353 90.068 C 307.470 115.730,277.116 149.219,269.740 149.219 C 268.350 149.219,243.579 130.768,243.887 129.962 C 244.027 129.597,246.658 127.273,249.736 124.798 C 270.874 107.792,304.780 60.655,310.956 39.685 C 311.647 37.337,312.333 36.244,312.855 36.655 C 313.304 37.009,319.297 41.443,326.172 46.507 M49.619 64.847 C 73.344 73.010,121.735 113.371,132.540 134.010 L 134.665 138.067 124.168 150.709 C 113.848 163.139,113.652 163.321,112.500 161.569 C 106.203 151.996,102.214 149.733,98.010 153.349 C 94.859 156.059,95.119 159.081,98.977 164.624 C 100.707 167.108,102.528 169.918,103.025 170.868 L 103.928 172.595 100.597 171.424 C 77.904 163.451,34.381 127.776,19.237 104.734 C 15.818 99.531,15.740 99.609,22.342 101.618 C 34.871 105.429,49.275 115.256,70.012 134.140 C 78.871 142.207,83.638 142.980,85.825 136.706 C 87.068 133.139,86.028 131.423,78.610 124.806 C 59.343 107.617,39.889 94.574,26.706 90.006 C 24.828 89.355,24.291 88.812,24.753 88.031 C 25.282 87.137,44.767 63.322,44.995 63.291 C 45.035 63.286,47.116 63.986,49.619 64.847 M187.418 69.620 C 181.256 71.882,183.210 81.250,189.844 81.250 C 196.691 81.250,198.403 71.815,191.963 69.570 C 190.669 69.119,189.575 68.778,189.532 68.812 C 189.489 68.846,188.537 69.210,187.418 69.620 M176.320 140.294 L 183.335 151.291 175.847 148.391 L 168.359 145.491 168.137 136.624 C 168.006 131.404,168.200 128.074,168.610 128.527 C 168.992 128.951,172.462 134.245,176.320 140.294 M1.293 158.460 C -0.492 160.432,-0.411 165.792,1.429 167.457 C 5.210 170.879,11.719 167.991,11.719 162.891 C 11.719 157.702,4.684 154.712,1.293 158.460 M210.846 188.979 C 206.648 192.379,209.412 200.000,214.844 200.000 C 218.409 200.000,220.668 197.576,220.668 193.750 C 220.668 189.924,218.409 187.500,214.844 187.500 C 213.650 187.500,211.851 188.166,210.846 188.979 M381.098 208.010 L 381.337 210.822 377.387 209.559 C 372.663 208.048,372.536 207.612,376.367 206.046 C 380.254 204.457,380.816 204.690,381.098 208.010 M163.551 212.109 L 164.749 215.625 161.588 215.625 C 158.887 215.625,158.507 215.426,158.981 214.258 C 159.285 213.506,159.885 211.924,160.313 210.742 C 161.403 207.730,162.169 208.053,163.551 212.109 M99.470 216.523 C 97.306 217.608,95.787 221.220,96.506 223.575 C 98.800 231.093,109.555 228.880,108.300 221.148 C 107.586 216.748,103.398 214.555,99.470 216.523 M135.468 262.572 C 111.449 279.417,84.989 297.976,76.669 303.814 C 61.360 314.554,59.692 316.237,60.633 319.988 C 61.757 324.466,63.728 324.999,79.207 325.012 C 97.418 325.027,95.650 323.089,95.966 343.386 L 96.229 360.268 91.083 372.609 C 82.461 393.288,85.075 400.000,101.753 400.000 C 118.266 400.000,120.928 393.924,113.398 373.422 L 108.669 360.547 108.436 343.164 L 108.203 325.781 118.750 325.781 L 129.297 325.781 135.477 346.289 C 143.345 372.396,143.297 372.275,146.345 373.561 C 150.213 375.194,180.684 374.940,192.188 373.180 C 224.103 368.295,252.131 356.656,277.563 337.726 C 287.988 329.966,287.866 332.281,279.323 304.223 C 275.686 292.275,272.785 282.456,272.878 282.403 C 274.707 281.359,323.567 246.959,324.805 245.843 C 327.235 243.653,327.203 239.156,324.741 236.842 C 322.927 235.138,322.696 235.127,267.905 234.013 C 237.647 233.399,205.297 232.682,196.015 232.420 L 179.140 231.945 135.468 262.572 M253.125 246.153 C 278.691 246.615,299.904 247.065,300.264 247.152 C 300.624 247.240,287.675 256.605,271.490 267.965 C 240.615 289.634,240.188 290.001,240.975 294.200 C 242.139 300.405,246.839 300.657,255.129 294.960 C 262.619 289.813,261.308 288.368,267.493 308.594 L 272.629 325.391 270.494 327.175 C 252.241 342.432,219.818 356.238,192.173 360.524 C 183.036 361.941,160.342 363.002,156.118 362.209 L 153.383 361.696 148.456 345.497 C 145.745 336.587,143.352 328.647,143.137 327.853 C 142.747 326.411,183.455 326.382,202.043 327.811 L 207.601 328.239 215.324 323.008 C 228.182 314.299,230.502 310.410,225.285 306.307 C 221.932 303.669,219.757 304.249,211.820 309.902 L 204.499 315.116 150.492 314.179 C 120.788 313.664,94.282 313.047,91.590 312.808 L 86.696 312.373 93.741 307.387 L 100.786 302.400 148.618 294.128 C 180.656 288.588,196.885 285.464,197.764 284.668 C 200.721 281.992,200.138 276.932,196.607 274.618 C 194.824 273.450,192.617 273.736,160.542 279.302 C 141.751 282.563,126.278 285.126,126.157 284.998 C 126.036 284.870,138.822 275.702,154.570 264.625 L 183.203 244.485 194.922 244.898 C 201.367 245.126,227.559 245.690,253.125 246.153 M363.190 249.135 C 358.991 252.535,361.755 260.156,367.188 260.156 C 370.753 260.156,373.011 257.732,373.011 253.906 C 373.011 250.080,370.753 247.656,367.188 247.656 C 365.994 247.656,364.195 248.322,363.190 249.135 M30.378 263.198 C 26.179 266.598,28.943 274.219,34.375 274.219 C 37.940 274.219,40.199 271.795,40.199 267.969 C 40.199 264.143,37.940 261.719,34.375 261.719 C 33.181 261.719,31.382 262.384,30.378 263.198 M328.125 306.250 C 324.501 309.874,327.043 317.188,331.926 317.188 C 337.773 317.188,340.684 309.816,336.223 306.307 C 333.617 304.257,330.142 304.233,328.125 306.250 M392.390 356.029 C 388.470 356.763,386.841 363.404,389.844 366.406 C 393.774 370.336,400.000 367.619,400.000 361.974 C 400.000 357.575,396.931 355.178,392.390 356.029 M18.659 360.073 C 14.460 363.473,17.224 371.094,22.656 371.094 C 26.221 371.094,28.480 368.670,28.480 364.844 C 28.480 361.018,26.221 358.594,22.656 358.594 C 21.462 358.594,19.664 359.259,18.659 360.073 M103.753 383.984 L 105.292 387.891 101.938 387.622 L 98.585 387.354 100.185 383.503 C 101.066 381.384,101.882 379.747,102.000 379.864 C 102.117 379.982,102.906 381.836,103.753 383.984 M256.698 389.508 C 252.609 393.596,255.197 400.000,260.937 400.000 C 266.873 400.000,269.414 392.140,264.531 388.879 C 262.987 387.848,257.954 388.252,256.698 389.508 " stroke="white" fill="#000000" fill-rule="evenodd"></path></g></svg>