<svg id="svg" xmlns="http://www.w3.org/2000/svg" xmlns:xlink="http://www.w3.org/1999/xlink" width="400" height="400" viewBox="0, 0, 400,400"><g id="svgg"><path id="path0" d="M197.656 0.731 C 184.114 4.865,181.668 9.170,171.774 46.289 L 164.538 73.438 91.555 73.437 C 9.239 73.437,15.377 72.978,10.924 79.477 L 8.984 82.307 8.984 223.437 L 8.984 364.567 11.063 367.708 C 15.402 374.264,8.672 373.778,101.172 374.219 L 183.203 374.609 230.469 387.386 C 288.563 403.090,289.796 403.191,300.927 393.135 C 308.026 386.721,302.220 406.259,350.887 225.000 C 395.646 58.294,393.406 68.081,388.975 58.594 C 382.748 45.259,390.468 48.181,290.802 21.439 C 206.732 -1.118,204.985 -1.507,197.656 0.731 M287.779 35.619 C 340.064 49.607,369.236 57.763,370.857 58.848 C 374.171 61.067,376.563 65.488,376.563 69.398 C 376.562 72.927,296.111 374.121,293.946 378.695 C 289.920 387.204,286.279 387.350,259.064 380.089 C 235.147 373.708,232.119 372.792,234.656 372.706 C 237.711 372.602,245.569 367.599,248.498 363.893 C 254.958 355.720,254.688 358.722,254.688 295.196 L 254.688 238.889 257.617 239.435 C 259.229 239.735,260.854 240.038,261.229 240.108 C 262.563 240.355,269.130 213.999,267.921 213.252 C 266.650 212.466,256.129 209.755,255.273 209.993 C 254.951 210.083,254.688 186.564,254.688 157.729 C 254.688 116.112,254.889 105.377,255.664 105.669 C 256.201 105.871,259.200 106.692,262.327 107.494 L 268.014 108.951 271.059 118.734 C 272.733 124.114,276.286 135.723,278.952 144.531 C 281.619 153.340,284.194 160.929,284.674 161.395 C 285.413 162.113,294.226 164.844,295.805 164.844 C 296.088 164.844,296.065 153.931,295.752 140.594 L 295.184 116.344 297.397 116.896 C 298.614 117.199,302.942 118.364,307.015 119.485 L 314.421 121.523 318.734 129.135 C 322.966 136.605,326.024 139.063,331.089 139.063 C 331.274 139.063,331.170 134.120,330.857 128.079 L 330.288 117.096 336.238 108.163 C 343.312 97.541,343.111 98.756,337.988 97.610 L 333.788 96.670 326.248 101.107 L 318.708 105.545 309.553 103.101 C 304.517 101.757,300.268 100.529,300.110 100.370 C 299.952 100.212,305.117 91.354,311.588 80.685 C 326.192 56.605,325.339 59.023,319.783 57.449 C 317.281 56.741,314.681 56.002,314.005 55.806 C 313.208 55.576,305.686 62.054,292.636 74.210 C 281.560 84.527,272.267 92.969,271.985 92.969 C 268.631 92.969,251.757 87.325,250.578 85.809 C 247.257 81.538,243.102 77.838,239.453 75.901 L 235.547 73.828 207.617 73.596 C 192.256 73.468,179.688 73.232,179.688 73.070 C 179.688 71.676,193.227 22.860,194.061 21.247 C 196.038 17.425,201.190 14.162,205.357 14.093 C 206.369 14.076,243.459 23.763,287.779 35.619 M234.716 90.144 C 241.110 95.021,240.589 83.199,240.608 223.582 C 240.626 355.401,240.757 350.816,236.864 354.979 C 232.519 359.626,238.848 359.375,126.197 359.375 L 22.656 359.375 22.656 223.429 L 22.656 87.483 127.209 87.687 L 231.762 87.891 234.716 90.144 M117.578 115.258 C 55.017 127.004,28.350 200.651,69.043 249.298 C 108.509 296.476,185.427 283.813,208.228 226.385 C 231.739 167.167,179.857 103.566,117.578 115.258 M133.815 129.500 C 136.994 133.013,143.703 148.438,146.724 159.180 L 148.317 164.844 131.909 164.844 L 115.501 164.844 116.026 162.305 C 117.875 153.372,126.516 132.859,129.824 129.551 C 131.600 127.775,132.246 127.767,133.815 129.500 M109.867 135.742 C 107.307 140.802,103.626 151.468,101.912 158.789 L 100.496 164.844 86.492 164.844 C 70.594 164.844,71.409 165.400,76.441 157.992 C 82.925 148.448,94.586 138.883,105.327 134.301 C 112.097 131.412,112.064 131.402,109.867 135.742 M164.995 137.760 C 174.784 143.299,183.950 152.192,189.552 161.585 L 191.516 164.879 177.319 164.666 L 163.121 164.453 161.324 157.422 C 159.339 149.656,156.071 140.241,153.810 135.773 C 153.004 134.179,152.344 132.686,152.344 132.456 C 152.344 131.713,159.927 134.893,164.995 137.760 M263.406 184.023 C 262.429 187.748,261.775 190.942,261.953 191.120 C 262.415 191.582,273.213 194.531,274.443 194.531 C 275.334 194.531,279.470 181.452,278.756 180.891 C 278.624 180.787,276.230 180.126,273.438 179.423 C 270.645 178.719,267.644 177.942,266.771 177.697 C 265.346 177.296,264.998 177.951,263.406 184.023 M98.047 196.485 L 98.047 213.282 82.319 213.282 L 66.592 213.281 65.708 209.773 C 63.717 201.863,63.952 186.519,66.153 180.783 C 66.494 179.893,69.532 179.688,82.310 179.688 L 98.047 179.688 98.047 196.485 M151.061 182.617 C 151.697 186.463,151.700 205.030,151.066 209.657 L 150.569 213.281 131.649 213.281 L 112.729 213.281 112.224 207.304 C 111.587 199.765,111.588 191.735,112.228 184.961 L 112.726 179.688 131.651 179.688 L 150.577 179.688 151.061 182.617 M198.302 184.660 C 199.495 191.133,199.419 203.155,198.151 208.594 L 197.149 212.891 181.569 213.102 L 165.990 213.312 166.003 196.500 L 166.016 179.688 181.701 179.688 L 197.386 179.688 198.302 184.660 M289.217 191.112 C 288.235 194.817,287.535 197.941,287.661 198.055 C 288.000 198.359,299.903 201.563,300.694 201.563 C 301.323 201.563,305.026 188.331,304.524 187.881 C 304.211 187.600,292.309 184.375,291.586 184.375 C 291.264 184.375,290.198 187.407,289.217 191.112 M315.271 197.461 C 314.489 200.791,313.715 203.875,313.550 204.315 C 313.385 204.755,315.630 205.730,318.539 206.481 C 321.448 207.233,324.562 208.042,325.459 208.279 C 326.930 208.667,327.268 208.050,328.895 201.996 C 331.002 194.155,331.377 194.900,324.340 192.950 C 316.534 190.787,316.877 190.616,315.271 197.461 M294.258 221.608 C 293.349 224.697,287.500 246.736,287.500 247.075 C 287.500 247.650,300.768 251.054,301.227 250.596 C 301.754 250.069,308.757 224.104,308.439 223.855 C 308.309 223.754,305.918 223.095,303.125 222.391 C 300.332 221.688,297.290 220.900,296.364 220.641 C 295.149 220.300,294.564 220.569,294.258 221.608 M102.466 235.423 C 103.605 239.867,105.965 247.143,107.712 251.594 C 111.539 261.342,111.742 261.048,103.762 257.319 C 91.800 251.730,81.762 242.931,74.690 231.836 L 71.827 227.344 86.112 227.344 L 100.397 227.344 102.466 235.423 M146.787 233.008 C 142.815 247.513,134.814 264.063,131.773 264.063 C 128.669 264.063,118.485 241.968,116.019 229.883 L 115.501 227.344 131.919 227.344 L 148.338 227.344 146.787 233.008 M190.549 229.102 C 184.672 240.421,171.003 252.704,158.383 258.007 C 151.801 260.772,151.967 260.935,154.735 254.447 C 156.936 249.288,160.818 237.411,162.509 230.664 L 163.341 227.344 177.401 227.344 L 191.461 227.344 190.549 229.102 M280.094 274.414 C 279.915 274.951,274.468 295.254,267.989 319.531 C 261.510 343.809,256.039 364.222,255.832 364.895 C 255.484 366.025,264.831 369.110,268.675 369.134 C 269.660 369.140,294.989 277.541,294.216 276.768 C 292.537 275.089,280.536 273.088,280.094 274.414 M63.281 325.781 L 63.281 332.813 131.641 332.813 L 200.000 332.813 200.000 325.781 L 200.000 318.750 131.641 318.750 L 63.281 318.750 63.281 325.781 " stroke="white" fill="#000000" fill-rule="evenodd"></path></g></svg>