<svg id="svg" xmlns="http://www.w3.org/2000/svg" xmlns:xlink="http://www.w3.org/1999/xlink" width="400" height="400" viewBox="0, 0, 400,400"><g id="svgg"><path id="path0" d="M115.028 25.720 C 53.246 45.130,33.095 51.758,31.599 53.164 L 29.627 55.017 29.882 137.079 C 30.164 227.932,29.963 224.065,35.560 246.147 C 54.638 321.408,113.545 379.904,188.559 398.078 C 198.944 400.594,201.849 400.510,214.229 397.337 C 291.833 377.447,351.461 314.115,366.711 235.382 C 370.190 217.420,370.312 213.920,370.312 132.698 L 370.312 55.179 368.594 53.350 C 366.629 51.258,369.451 52.183,271.494 21.518 C 226.319 7.377,201.680 0.022,199.619 0.064 C 197.840 0.101,161.257 11.196,115.028 25.720 M267.188 37.524 C 303.066 48.752,337.168 59.436,342.969 61.267 L 353.516 64.597 353.743 136.400 C 353.982 212.071,353.849 215.898,350.373 233.203 C 336.254 303.505,284.362 359.660,214.500 380.241 C 202.150 383.879,197.944 383.875,185.469 380.215 C 116.708 360.038,65.072 304.931,50.078 235.723 C 45.971 216.770,45.913 215.520,45.530 137.742 L 45.171 64.937 51.687 62.939 C 55.271 61.840,90.020 50.947,128.906 38.732 C 167.793 26.517,200.137 16.656,200.781 16.817 C 201.426 16.978,231.309 26.297,267.188 37.524 M137.500 64.505 C 86.372 80.586,76.680 83.862,75.195 85.567 L 73.438 87.587 73.438 148.050 C 73.437 197.182,73.656 210.168,74.603 217.343 C 82.983 280.826,128.793 334.754,189.969 353.155 C 201.648 356.668,212.556 354.274,234.766 343.324 C 257.584 332.074,265.080 325.347,262.275 318.636 C 259.370 311.687,255.042 311.617,244.922 318.355 C 234.813 325.086,219.011 332.851,208.398 336.302 L 200.000 339.033 191.602 336.289 C 143.689 320.634,106.512 280.835,94.115 231.930 C 89.838 215.058,89.680 212.465,89.280 152.597 L 88.909 96.991 91.525 96.257 C 92.963 95.853,117.979 88.054,147.114 78.925 L 200.088 62.328 239.302 74.618 C 260.869 81.378,285.547 89.118,294.141 91.818 L 309.766 96.727 309.766 155.590 L 309.766 214.453 307.649 224.235 C 305.145 235.804,300.724 248.991,295.766 259.673 C 291.335 269.219,291.407 273.273,296.050 275.758 C 303.885 279.951,309.743 272.807,317.812 249.219 C 326.242 224.575,326.531 221.242,326.548 148.676 L 326.563 87.587 324.805 85.555 C 323.037 83.511,203.672 45.223,199.609 45.396 C 198.750 45.433,170.801 54.032,137.500 64.505 M211.170 161.107 L 185.956 186.277 174.754 175.170 C 159.126 159.675,161.429 159.385,141.335 179.387 C 124.953 195.695,124.035 197.046,126.100 201.806 C 127.626 205.327,181.065 258.351,183.748 259.008 C 188.524 260.177,189.854 259.010,232.557 216.208 C 276.972 171.690,276.295 172.493,273.959 167.073 C 273.336 165.626,266.388 158.071,258.437 150.195 L 244.045 135.938 240.214 135.938 L 236.384 135.938 211.170 161.107 M220.507 204.881 L 185.942 239.446 165.627 219.143 L 145.312 198.839 152.731 191.419 L 160.151 184.000 170.929 194.757 C 187.163 210.960,183.716 212.108,216.011 179.739 L 240.225 155.469 247.648 162.893 L 255.072 170.316 220.507 204.881 M274.940 292.127 C 269.982 297.085,273.382 305.682,280.300 305.682 C 286.460 305.682,290.188 300.700,288.302 294.986 C 286.486 289.483,279.153 287.914,274.940 292.127 " stroke="white" fill="#000000" fill-rule="evenodd"></path></g></svg>