<svg id="svg" xmlns="http://www.w3.org/2000/svg" xmlns:xlink="http://www.w3.org/1999/xlink" width="400" height="400" viewBox="0, 0, 400,400"><g id="svgg"><path id="path0" d="M139.517 28.490 C 127.212 33.577,124.688 39.272,124.361 62.695 L 124.113 80.469 85.689 80.480 C 44.263 80.493,42.742 80.616,32.140 84.814 C 20.157 89.559,11.268 97.714,5.850 108.932 C -0.368 121.806,-0.076 115.595,0.171 229.688 L 0.391 330.859 2.840 337.704 C 9.092 355.178,20.761 365.869,39.453 371.248 L 45.703 373.047 200.000 373.047 L 354.297 373.047 360.547 371.248 C 379.239 365.869,390.908 355.178,397.160 337.704 L 399.609 330.859 399.609 227.344 L 399.609 123.828 397.776 117.988 C 392.099 99.908,380.262 88.331,361.706 82.711 C 356.018 80.988,354.774 80.932,315.820 80.659 L 275.781 80.378 275.781 63.656 C 275.781 40.943,272.920 33.961,261.495 28.795 L 257.422 26.953 200.781 26.766 L 144.141 26.579 139.517 28.490 M253.319 43.791 C 258.181 45.141,258.594 46.786,258.594 64.805 L 258.594 80.469 200.000 80.469 L 141.406 80.469 141.406 65.351 C 141.406 46.604,141.949 44.818,148.047 43.490 C 151.586 42.719,250.478 43.002,253.319 43.791 M354.283 98.839 C 368.994 101.955,379.409 112.327,382.032 126.474 C 383.415 133.931,383.044 322.749,381.635 328.726 C 378.308 342.836,368.660 351.856,353.447 355.079 C 345.328 356.799,54.672 356.799,46.553 355.079 C 31.249 351.837,21.643 342.797,18.332 328.521 C 17.307 324.101,17.181 310.475,17.365 224.413 L 17.578 125.391 19.451 120.703 C 24.198 108.823,32.767 101.602,45.358 98.872 C 53.128 97.187,346.338 97.156,354.283 98.839 M168.750 143.945 C 163.623 147.445,163.281 149.030,163.281 169.324 L 163.281 187.500 145.478 187.500 C 116.327 187.500,117.188 186.378,117.188 224.409 C 117.188 262.581,116.492 261.719,147.304 261.719 L 163.281 261.719 163.281 279.776 C 163.281 308.303,161.559 307.031,200.186 307.031 C 238.203 307.031,236.210 308.489,236.563 280.414 L 236.798 261.719 252.735 261.719 C 283.493 261.719,282.812 262.562,282.813 224.491 C 282.813 186.534,283.926 188.025,255.273 187.644 L 236.719 187.398 236.719 169.273 C 236.719 140.616,238.849 142.188,200.000 142.188 C 171.547 142.188,171.305 142.201,168.750 143.945 M219.690 179.753 L 219.922 200.131 222.473 202.409 L 225.025 204.688 245.325 204.688 L 265.625 204.688 265.625 224.160 L 265.625 243.633 245.508 243.887 C 217.789 244.236,219.531 242.443,219.531 270.626 L 219.531 289.844 200.000 289.844 L 180.469 289.844 180.469 270.626 C 180.469 242.443,182.211 244.236,154.492 243.887 L 134.375 243.633 134.375 224.160 L 134.375 204.688 154.675 204.688 L 174.975 204.688 177.527 202.409 L 180.078 200.131 180.310 179.753 L 180.543 159.375 200.000 159.375 L 219.457 159.375 219.690 179.753 " stroke="white" fill="#000000" fill-rule="evenodd"></path></g></svg>