<svg id="svg" xmlns="http://www.w3.org/2000/svg" xmlns:xlink="http://www.w3.org/1999/xlink" width="400" height="400" viewBox="0, 0, 400,400"><g id="svgg"><path id="path0" d="M42.784 0.770 C 30.880 4.398,23.421 19.524,27.669 31.424 L 28.707 34.332 25.300 35.981 C 15.741 40.609,10.629 54.006,14.373 64.617 L 15.465 67.713 12.878 68.648 C -1.070 73.692,-4.459 95.790,7.008 106.919 L 10.240 110.055 8.549 113.369 C 3.633 123.006,7.749 137.760,16.698 142.580 L 19.531 144.105 19.531 177.688 L 19.531 211.270 9.961 227.279 L 0.391 243.288 0.180 298.740 C -0.063 362.736,-0.430 359.073,6.961 366.456 C 13.484 372.973,23.134 375.290,31.424 372.331 L 34.332 371.293 35.981 374.700 C 40.609 384.259,54.006 389.371,64.617 385.627 L 67.713 384.535 68.648 387.122 C 73.692 401.070,95.790 404.459,106.919 392.992 L 110.055 389.760 113.369 391.451 C 123.006 396.367,137.760 392.251,142.580 383.302 L 144.105 380.469 177.688 380.469 L 211.270 380.469 227.279 390.039 L 243.288 399.609 298.740 399.820 C 362.736 400.063,359.073 400.430,366.456 393.039 C 372.973 386.516,375.290 376.866,372.331 368.576 L 371.293 365.668 374.700 364.019 C 384.259 359.391,389.371 345.994,385.627 335.383 L 384.535 332.287 387.122 331.352 C 401.070 326.308,404.459 304.210,392.992 293.081 L 389.760 289.945 391.431 286.670 C 396.272 277.181,392.354 262.640,383.612 257.648 L 380.481 255.859 380.475 222.294 L 380.469 188.730 390.039 172.721 L 399.609 156.712 399.820 101.260 C 400.063 37.264,400.430 40.927,393.039 33.544 C 386.516 27.027,376.866 24.710,368.576 27.669 L 365.668 28.707 364.019 25.300 C 359.391 15.741,345.994 10.629,335.383 14.373 L 332.287 15.465 331.352 12.878 C 326.313 -1.058,304.211 -4.460,293.099 6.990 L 289.981 10.203 286.799 8.544 C 277.275 3.580,262.237 7.754,257.420 16.698 L 255.895 19.531 222.312 19.531 L 188.730 19.531 172.721 9.961 L 156.712 0.391 100.817 0.255 C 70.075 0.180,43.960 0.412,42.784 0.770 M166.272 22.810 C 185.779 34.533,180.738 33.519,219.727 33.559 L 253.125 33.594 253.125 62.600 L 253.125 91.606 250.586 89.560 C 239.235 80.409,234.748 78.125,228.125 78.125 C 215.454 78.125,205.189 89.495,206.489 102.090 L 206.918 106.250 194.614 106.250 C 175.937 106.250,179.282 104.191,148.438 134.670 C 99.709 182.821,103.581 179.261,99.926 179.261 C 94.260 179.261,90.445 173.039,93.192 168.276 C 93.714 167.371,98.359 161.470,103.516 155.161 C 113.675 142.732,114.568 141.002,112.891 136.991 C 111.157 132.839,110.875 132.813,67.723 132.810 C 22.909 132.806,24.402 132.990,21.617 127.123 C 20.028 123.774,19.989 122.422,21.404 119.686 C 24.131 114.414,23.766 114.492,47.675 114.063 C 72.768 113.611,73.438 113.419,73.438 106.641 C 73.438 100.127,73.479 100.137,45.703 99.855 C 16.588 99.560,14.063 98.758,14.063 89.808 C 14.063 81.335,16.921 80.469,44.883 80.469 C 72.786 80.469,73.438 80.297,73.438 72.947 C 73.438 71.116,72.818 69.622,71.520 68.324 L 69.602 66.406 52.340 66.406 C 31.249 66.406,27.339 64.954,27.347 57.121 C 27.356 47.893,30.533 46.875,59.333 46.875 L 82.884 46.875 84.801 44.957 C 86.099 43.660,86.719 42.165,86.719 40.334 C 86.719 33.254,85.386 32.813,64.009 32.813 L 46.691 32.813 43.658 29.779 C 39.339 25.460,39.339 21.415,43.658 17.096 L 46.691 14.063 99.203 14.063 L 151.715 14.063 166.272 22.810 M314.906 15.395 C 319.301 17.992,319.531 19.458,319.531 44.883 C 319.531 72.786,319.703 73.438,327.053 73.438 C 328.884 73.438,330.378 72.818,331.676 71.520 L 333.594 69.602 333.594 52.340 C 333.594 31.249,335.046 27.339,342.879 27.347 C 352.107 27.356,353.125 30.533,353.125 59.333 L 353.125 82.884 355.043 84.801 C 356.340 86.099,357.835 86.719,359.666 86.719 C 366.746 86.719,367.188 85.386,367.188 64.009 L 367.188 46.691 370.221 43.658 C 374.540 39.339,378.585 39.339,382.904 43.658 L 385.938 46.691 385.938 99.203 L 385.938 151.715 377.190 166.272 C 365.467 185.779,366.481 180.738,366.441 219.727 L 366.406 253.125 337.404 253.125 C 309.903 253.125,308.457 253.054,309.456 251.758 C 310.036 251.006,312.210 248.312,314.288 245.772 C 328.877 227.936,320.776 206.722,299.414 206.825 L 293.750 206.852 293.750 194.581 C 293.750 176.054,295.478 178.957,267.674 150.781 C 216.362 98.783,220.739 103.513,220.739 100.052 C 220.739 94.326,226.796 90.588,231.741 93.263 C 232.975 93.930,239.082 98.695,245.313 103.853 C 255.178 112.019,257.011 113.233,259.506 113.255 C 267.441 113.327,267.187 114.831,267.190 67.812 C 267.194 22.898,267.009 24.402,272.877 21.617 C 276.226 20.028,277.578 19.989,280.314 21.404 C 285.586 24.131,285.508 23.766,285.938 47.675 C 286.389 72.768,286.581 73.438,293.359 73.438 C 299.873 73.438,299.863 73.479,300.145 45.703 C 300.362 24.341,300.553 21.187,301.768 18.965 C 304.293 14.346,310.345 12.701,314.906 15.395 M248.633 151.920 L 279.688 183.492 279.649 200.535 L 279.610 217.578 248.074 248.633 L 216.539 279.688 199.480 279.653 L 182.422 279.619 151.367 248.075 L 120.313 216.531 120.338 199.476 L 120.364 182.422 151.923 151.367 L 183.482 120.313 200.530 120.330 L 217.578 120.347 248.633 151.920 M89.876 149.023 C 88.976 150.205,86.351 153.584,84.041 156.532 C 71.268 172.837,80.033 193.304,99.805 193.346 L 106.250 193.359 106.250 205.525 C 106.250 224.057,104.158 220.686,135.061 251.953 C 182.710 300.165,179.261 296.410,179.261 300.074 C 179.261 302.709,178.807 303.691,176.728 305.549 C 171.931 309.834,170.510 309.216,154.330 295.808 C 142.660 286.137,140.586 285.110,136.742 287.097 C 132.863 289.103,132.813 289.679,132.813 332.185 C 132.813 370.822,132.763 372.162,131.238 374.629 C 128.585 378.921,123.615 380.627,119.686 378.596 C 114.414 375.869,114.492 376.234,114.063 352.325 C 113.611 327.232,113.419 326.563,106.641 326.563 C 100.127 326.563,100.137 326.521,99.855 354.297 C 99.563 383.059,98.652 385.938,89.844 385.938 C 81.331 385.938,80.469 383.104,80.469 355.117 C 80.469 327.214,80.297 326.563,72.947 326.563 C 71.116 326.563,69.622 327.182,68.324 328.480 L 66.406 330.398 66.406 347.660 C 66.406 368.751,64.954 372.661,57.121 372.653 C 47.893 372.644,46.875 369.467,46.875 340.667 L 46.875 317.116 44.957 315.199 C 41.926 312.167,35.547 312.738,33.893 316.189 C 33.527 316.953,33.047 325.780,32.825 335.804 L 32.422 354.030 29.504 356.702 C 25.242 360.605,21.243 360.489,17.096 356.342 L 14.062 353.309 14.062 300.797 L 14.063 248.285 22.810 233.728 C 34.533 214.221,33.519 219.262,33.559 180.273 L 33.594 146.875 62.553 146.875 L 91.513 146.875 89.876 149.023 M305.664 223.448 C 309.781 227.967,309.239 229.236,296.555 244.778 C 286.567 257.017,285.565 258.855,286.859 262.567 C 288.479 267.214,288.219 267.187,332.188 267.190 C 377.102 267.194,375.598 267.009,378.383 272.877 C 379.972 276.226,380.011 277.578,378.596 280.314 C 375.869 285.586,376.234 285.508,352.325 285.938 C 327.232 286.389,326.563 286.581,326.563 293.359 C 326.563 299.873,326.521 299.863,354.297 300.145 C 383.412 300.440,385.938 301.242,385.938 310.192 C 385.938 318.665,383.079 319.531,355.117 319.531 C 327.214 319.531,326.563 319.703,326.563 327.053 C 326.563 328.884,327.182 330.378,328.480 331.676 L 330.398 333.594 347.660 333.594 C 368.751 333.594,372.661 335.046,372.653 342.879 C 372.644 352.107,369.467 353.125,340.667 353.125 L 317.116 353.125 315.199 355.043 C 313.901 356.340,313.281 357.835,313.281 359.666 C 313.281 366.746,314.614 367.188,335.991 367.188 L 353.309 367.188 356.342 370.221 C 358.910 372.789,359.375 373.761,359.375 376.563 C 359.375 379.364,358.910 380.336,356.342 382.904 L 353.309 385.938 300.797 385.938 L 248.285 385.938 233.728 377.190 C 214.221 365.467,219.262 366.481,180.273 366.441 L 146.875 366.406 146.875 337.404 C 146.875 309.903,146.946 308.457,148.242 309.456 C 148.994 310.036,151.719 312.242,154.297 314.360 C 172.217 329.077,195.711 319.222,193.511 297.910 L 193.082 293.750 205.386 293.750 C 224.208 293.750,219.398 297.006,260.521 256.433 C 279.871 237.343,296.406 221.415,297.266 221.038 C 299.825 219.915,303.373 220.934,305.664 223.448 " stroke="white" fill="#000000" fill-rule="evenodd"></path></g></svg>